<?xml version="1.0" encoding="utf-8"?>
<?xml-stylesheet type="text/xsl" href="rss1.xsl"?>
<rss version="2.0" xmlns:atom="http://www.w3.org/2005/Atom" xmlns:content="http://purl.org/rss/1.0/modules/content/" xmlns:dc="http://purl.org/dc/elements/1.1/" xmlns:media="http://search.yahoo.com/mrss/">
<channel>
 <title>Getty</title>
 <link>http://www.gettyimg.com/</link>
 <atom:link href="http://www.gettyimg.com/" rel="self" type="application/rss+xml" />

 
                <item>
                <title><![CDATA[【UPSCALED】After School - Flashback (1080P Upscale)]]></title>
                <link><![CDATA[https://sharemania.us/threads/after-school-flashback-1080p-upscale.235525/]]></link>
                <description><![CDATA[<article>
<blockquote class="messageText SelectQuoteContainer ugc baseHtml">
<img src="https://i.imgur.com/vlCqvnp.jpeg" class="bbCodeImage LbImage" alt="[​IMG]" data-url="https://i.imgur.com/vlCqvnp.jpeg" style=""> <img src="https://i.imgur.com/RFHipdx.jpeg" class="bbCodeImage LbImage" alt="[​IMG]" data-url="https://i.imgur.com/RFHipdx.jpeg" style=""> <img src="https://i.imgur.com/Dfulgy7.jpeg" class="bbCodeImage LbImage" alt="[​IMG]" data-url="https://i.imgur.com/Dfulgy7.jpeg" style=""> <img src="https://i.imgur.com/BmYurG7.jpeg" class="bbCodeImage LbImage" alt="[​IMG]" data-url="https://i.imgur.com/BmYurG7.jpeg" style=""> <img src="https://i.imgur.com/aCG6Mho.jpeg" class="bbCodeImage LbImage" alt="[​IMG]" data-url="https://i.imgur.com/aCG6Mho.jpeg" style=""> <img src="https://i.imgur.com/HHAQtST.jpeg" class="bbCodeImage LbImage" alt="[​IMG]" data-url="https://i.imgur.com/HHAQtST.jpeg" style=""> <br>
<br>
<div class="ToggleTriggerAnchor bbCodeSpoilerContainer">
<button type="button" class="button bbCodeSpoilerButton ToggleTrigger Tooltip JsOnly" data-target="> .SpoilerTarget"><span>Spoiler: <span class="SpoilerTitle">MediaInfo</span></span></button>
<div class="SpoilerTarget bbCodeSpoilerText">General<br>
Unique ID : 93735457720972890059299346015352249142 (0x4684CAE07714C85D220C5E2B064BDB36)<br>
Complete name : C:\Videos\After School(애프터스쿨) _ Flashback MV_prob3.mkv<br>
Format : Matroska<br>
Format version : Version 4<br>
File size : 1.01 GiB<br>
Duration : 3 min 29 s<br>
Overall bit rate : 41.6 Mb/s<br>
Movie name : After School(애프터스쿨) _ Flashback MV<br>
Writing application : Lavf60.14.101<br>
Writing library : Lavf60.14.101<br>
ErrorDetectionType : Per level 1<br>
VIDEOAI : Enhanced using prob-3; mode: manual; revert compression at 100; recover details at 75; sharpen at 20; reduce noise at 60; dehalo at 0; anti-alias/deblur at 35; and recover original detail at 35. Changed resolution to 1920x1080<br>
<br>
Video<br>
ID : 1<br>
Format : AVC<br>
Format/Info : Advanced Video Codec<br>
Format profile : High@L4.2<br>
Format settings : CABAC / 1 Ref Frames<br>
Format settings, CABAC : Yes<br>
Format settings, Reference fra : 1 frame<br>
Format settings, GOP : M=1, N=30<br>
Codec ID : V_MPEG4/ISO/AVC<br>
Duration : 3 min 29 s<br>
Bit rate : 38.4 Mb/s<br>
Width : 1 920 pixels<br>
Height : 1 080 pixels<br>
Display aspect ratio : 16:9<br>
Frame rate mode : Constant<br>
Frame rate : 23.976 (24000/1001) FPS<br>
Standard : Component<br>
Color space : YUV<br>
Chroma subsampling : 4:2:0<br>
Bit depth : 8 bits<br>
Scan type : Progressive<br>
Bits/(Pixel*Frame) : 0.773<br>
Stream size : 958 MiB (92%)<br>
Writing library : Lavc60.27.101 h264_amf<br>
Default : No<br>
Forced : No<br>
Color range : Limited<br>
Matrix coefficients : BT.709<br>
<br>
Audio<br>
ID : 2<br>
Format : PCM<br>
Format settings : Little / Signed<br>
Codec ID : A_PCM/INT/LIT<br>
Duration : 3 min 29 s<br>
Bit rate mode : Constant<br>
Bit rate : 2 304 kb/s<br>
Channel(s) : 2 channels<br>
Sampling rate : 48.0 kHz<br>
Bit depth : 24 bits<br>
Delay relative to video : 7 ms<br>
Stream size : 57.5 MiB (6%)<br>
Writing library : Lavc60.27.101 pcm_s24le<br>
Default : Yes<br>
Forced : No</div>
</div><br>
<div class="bbCodeBlock bbCodeVfcHH HiddenContent">
<div class="attribution type">Hidden Content:</div>
<blockquote>You must reply before you can see the hidden data contained here.</blockquote>
</div>
<div class="messageTextEndMarker">&nbsp;</div>
</blockquote>
</article>]]></description>
                <author><![CDATA[Avril1255]]></author>
                </item>

                </channel></rss>